<svg width="23" height="23" viewBox="0 0 23 23" fill="none" xmlns="http://www.w3.org/2000/svg">
<g clip-path="url(#clip0_70_16)">
<path fill-rule="evenodd" clip-rule="evenodd" d="M22.2562 16.9718L18.629 14.8773C17.9242 14.4703 17.0148 14.7128 16.6081 15.4185L16.465 15.6668C16.1026 16.2957 15.545 16.6964 14.8342 16.8421C14.1263 16.9871 13.4511 16.8353 12.8732 16.4016C11.6868 15.5113 10.5661 14.5283 9.51752 13.4795C8.46919 12.4309 7.48647 11.31 6.59671 10.1235C6.16305 9.54516 6.01075 8.86979 6.15578 8.16144C6.30134 7.4506 6.70288 6.89375 7.33114 6.53102L7.57921 6.38787C7.92326 6.18928 8.16411 5.87158 8.26699 5.48815C8.36939 5.10642 8.31853 4.70887 8.12089 4.36648L6.02667 0.738364C5.65481 0.0941101 4.88746 -0.161563 4.19709 0.103456L4.15202 0.120766C3.44046 0.393803 1.47932 1.11033 0.952292 1.6375C-0.606243 3.19649 0.0606158 6.01681 0.755929 7.81152C1.97366 10.9547 4.28356 13.98 6.65075 16.3474C9.01761 18.7147 12.0419 21.0259 15.184 22.2439C16.2741 22.6664 17.5009 23 18.6777 23C19.6627 23 20.6431 22.7615 21.3569 22.0475C21.8593 21.5449 22.6045 19.5218 22.8775 18.8348L22.8951 18.7906C23.1676 18.1048 22.8932 17.3397 22.2562 16.9718Z" fill="white"/>
</g>
<defs>
<clipPath id="clip0_70_16">
<rect width="23" height="23" fill="white"/>
</clipPath>
</defs>
</svg>
