<svg width="120" height="120" viewBox="0 0 120 120" fill="none" xmlns="http://www.w3.org/2000/svg">
<g clip-path="url(#clip0_70_235)">
<path d="M105.932 80.1353C102.707 88.8767 97.8287 96.4774 91.4319 102.724C84.1507 109.834 74.6164 115.484 63.0936 119.514C62.7155 119.646 62.3209 119.754 61.9244 119.833C61.4008 119.937 60.8679 119.993 60.3397 120H60.2362C59.6732 120 59.1074 119.943 58.5462 119.833C58.1497 119.754 57.7606 119.646 57.3843 119.517C45.8478 115.493 36.3016 109.846 29.013 102.736C22.6135 96.4893 17.7365 88.8932 14.5157 80.1517C8.65902 64.2582 8.99228 46.7496 9.26053 32.6798L9.2651 32.4637C9.31912 31.3019 9.35391 30.0815 9.37314 28.7338C9.4711 22.1173 14.7317 16.6434 21.3492 16.2744C35.1462 15.5045 45.8194 11.0046 54.939 2.11578L55.0186 2.04254C56.5329 0.653684 58.4409 -0.027469 60.3397 0.000912498C62.1707 0.0247163 63.9945 0.704953 65.4547 2.04254L65.5325 2.11578C74.654 11.0046 85.3272 15.5045 99.1242 16.2744C105.742 16.6434 111.002 22.1173 111.1 28.7338C111.119 30.0907 111.154 31.3092 111.208 32.4637L111.211 32.5553C111.478 46.6516 111.81 64.195 105.932 80.1353Z" fill="#3AADC7"/>
<path d="M105.932 80.1353C102.707 88.8767 97.8289 96.4774 91.4321 102.724C84.1509 109.834 74.6166 115.484 63.0938 119.514C62.7156 119.646 62.321 119.754 61.9246 119.833C61.4009 119.937 60.8681 119.993 60.3398 120V0.000915527C62.1709 0.0247193 63.9946 0.704956 65.4549 2.04254L65.5327 2.11579C74.6541 11.0046 85.3274 15.5045 99.1244 16.2744C105.742 16.6434 111.002 22.1173 111.1 28.7339C111.12 30.0907 111.154 31.3092 111.208 32.4637L111.211 32.5553C111.478 46.6517 111.81 64.195 105.932 80.1353Z" fill="#0997B6"/>
<path d="M90.1413 60C90.1413 76.4548 76.781 89.849 60.34 89.9076H60.2347C43.7451 89.9076 30.3271 76.4905 30.3271 60C30.3271 43.5104 43.7451 30.0934 60.2347 30.0934H60.34C76.781 30.152 90.1413 43.5462 90.1413 60Z" fill="white"/>
<path d="M90.1412 60C90.1412 76.4548 76.7809 89.849 60.3398 89.9076V30.0934C76.7809 30.152 90.1412 43.5462 90.1412 60Z" fill="#E1EBF0"/>
<path d="M73.8093 55.6934L60.34 69.1645L57.4295 72.075C56.742 72.7625 55.8402 73.1058 54.9393 73.1058C54.0375 73.1058 53.1366 72.7625 52.4482 72.075L46.1905 65.8146C44.8154 64.4395 44.8154 62.212 46.1905 60.8359C47.5638 59.4608 49.794 59.4608 51.1692 60.8359L54.9393 64.6061L68.8306 50.7148C70.2057 49.3387 72.436 49.3387 73.8093 50.7148C75.1844 52.0899 75.1844 54.3201 73.8093 55.6934Z" fill="#B4D2D7"/>
<path d="M73.8091 55.6934L60.3398 69.1645V59.2045L68.8305 50.7148C70.2056 49.3387 72.4358 49.3387 73.8091 50.7148C75.1842 52.0899 75.1842 54.3201 73.8091 55.6934Z" fill="#6FA5AA"/>
</g>
<defs>
<clipPath id="clip0_70_235">
<rect width="120" height="120" fill="white"/>
</clipPath>
</defs>
</svg>
