<svg width="120" height="120" viewBox="0 0 120 120" fill="none" xmlns="http://www.w3.org/2000/svg">
<g clip-path="url(#clip0_70_225)">
<path d="M44.9453 105C69.7981 105 89.9453 84.8528 89.9453 60C89.9453 35.1472 69.7981 15 44.9453 15C20.0925 15 -0.0546875 35.1472 -0.0546875 60C-0.0546875 84.8528 20.0925 105 44.9453 105Z" fill="#FAFAFA"/>
<path d="M44.9453 105C20.1353 105 -0.0546875 84.81 -0.0546875 60C-0.0546875 35.19 20.1353 15 44.9453 15C69.7553 15 89.9453 35.19 89.9453 60C89.9453 84.81 69.7603 105 44.9453 105ZM44.9453 22.5C24.2653 22.5 7.44531 39.32 7.44531 60C7.44531 80.68 24.2653 97.5 44.9453 97.5C65.6253 97.5 82.4453 80.68 82.4453 60C82.4453 39.32 65.6253 22.5 44.9453 22.5Z" fill="#FABE2C"/>
<path d="M44.9453 87.5C29.7803 87.5 17.4453 75.165 17.4453 60C17.4453 44.835 29.7803 32.5 44.9453 32.5C60.1103 32.5 72.4453 44.835 72.4453 60C72.4453 75.165 60.1103 87.5 44.9453 87.5ZM44.9453 40C33.9153 40 24.9453 48.97 24.9453 60C24.9453 71.03 33.9153 80 44.9453 80C55.9753 80 64.9453 71.03 64.9453 60C64.9453 48.97 55.9753 40 44.9453 40Z" fill="#FABE2C"/>
<path d="M44.9453 70C39.4303 70 34.9453 65.515 34.9453 60C34.9453 54.485 39.4303 50 44.9453 50C50.4603 50 54.9453 54.485 54.9453 60C54.9453 65.515 50.4603 70 44.9453 70ZM44.9453 57.5C43.5653 57.5 42.4453 58.62 42.4453 60C42.4453 61.38 43.5653 62.5 44.9453 62.5C46.3253 62.5 47.4453 61.38 47.4453 60C47.4453 58.62 46.3253 57.5 44.9453 57.5Z" fill="#FABE2C"/>
<path d="M44.9997 63.75C44.0397 63.75 43.0797 63.385 42.3497 62.65C40.8847 61.185 40.8847 58.81 42.3497 57.345L74.8497 24.845C76.3147 23.38 78.6897 23.38 80.1547 24.845C81.6197 26.31 81.6197 28.685 80.1547 30.15L47.6547 62.65C46.9197 63.385 45.9597 63.75 44.9997 63.75Z" fill="#607D8B"/>
<path d="M91.25 30H78.75C76.68 30 75 28.32 75 26.25V13.75C75 12.755 75.395 11.8 76.1 11.1L86.1 1.10002C87.175 0.0300189 88.79 -0.294981 90.185 0.285019C91.585 0.865019 92.5 2.23502 92.5 3.75002V12.5H101.25C102.765 12.5 104.135 13.415 104.715 14.815C105.295 16.215 104.975 17.83 103.9 18.9L93.9 28.9C93.2 29.605 92.245 30 91.25 30Z" fill="#0997B6"/>
<path d="M87.5 120C69.58 120 55 105.42 55 87.5C55 69.58 69.58 55 87.5 55C105.42 55 120 69.58 120 87.5C120 105.42 105.42 120 87.5 120Z" fill="#0997B6"/>
<path d="M82.4996 100C81.6346 100 80.7646 99.7 80.0596 99.095L71.3096 91.595C69.7396 90.245 69.5546 87.88 70.9046 86.305C72.2546 84.73 74.6146 84.545 76.1946 85.9L82.2096 91.055L95.9996 76.2C97.4096 74.68 99.7796 74.595 101.3 76C102.82 77.41 102.905 79.785 101.5 81.3L85.2496 98.8C84.5096 99.595 83.5046 100 82.4996 100Z" fill="#FAFAFA"/>
</g>
<defs>
<clipPath id="clip0_70_225">
<rect width="120" height="120" fill="white"/>
</clipPath>
</defs>
</svg>
