<svg width="120" height="120" viewBox="0 0 120 120" fill="none" xmlns="http://www.w3.org/2000/svg">
<g clip-path="url(#clip0_70_212)">
<path d="M60 102.422C83.2995 102.422 102.188 83.429 102.188 60C102.188 36.571 83.2995 17.5781 60 17.5781C36.7005 17.5781 17.8125 36.571 17.8125 60C17.8125 83.429 36.7005 102.422 60 102.422Z" fill="#3AADC7"/>
<path d="M102.188 60C102.188 36.7364 83.2636 17.5781 60 17.5781V102.422C83.2636 102.422 102.188 83.2636 102.188 60Z" fill="#0997B6"/>
<path d="M80.4551 11.1476C76.0296 9.27982 71.3674 7.59044 66.5951 6.99654C64.669 6.7563 63.3026 5.00177 63.5431 3.0724C63.78 1.14982 65.5343 -0.182371 67.4672 0.0203638C72.8745 0.693254 78.1653 2.55091 83.1879 4.66568C84.9767 5.42107 85.8143 7.48099 85.0624 9.27302C84.312 11.0517 82.2642 11.8992 80.4551 11.1476Z" fill="#FABE2C"/>
<path d="M102.016 27.8951C99.1111 24.067 95.6986 20.6543 91.8705 17.7499C90.322 16.5757 90.0199 14.3681 91.1941 12.8231C92.3716 11.2713 94.5724 10.9795 96.1209 12.1467C100.457 15.4392 104.326 19.3085 107.619 23.6447C108.793 25.1897 108.491 27.3973 106.943 28.5715C105.398 29.7401 103.194 29.4464 102.016 27.8951Z" fill="#FABE2C"/>
<path d="M112.996 53.4047C112.402 48.6326 110.485 43.7358 108.618 39.3103C107.866 37.5183 108.703 35.4581 110.492 34.703C112.281 33.9614 114.344 34.7887 115.1 36.5775C117.214 41.6004 119.299 47.1253 119.972 52.5326C120.212 54.462 118.846 56.2165 116.92 56.4567C114.913 56.6904 113.226 55.2696 112.996 53.4047Z" fill="#FABE2C"/>
<path d="M34.937 9.27304C34.1851 7.48101 35.0228 5.42085 36.8115 4.6657C41.8344 2.55093 47.125 0.693274 52.5322 0.0203836C54.4548 -0.182116 56.2161 1.14984 56.4564 3.07241C56.6966 5.00179 55.3302 6.75632 53.4043 6.99656C48.6322 7.59046 43.9698 9.27984 39.5443 11.1476C37.7396 11.8973 35.6891 11.0552 34.937 9.27304Z" fill="#FED843"/>
<path d="M81.0938 42.4219C79.1505 42.4219 77.5781 43.9943 77.5781 45.9375V56.4844H70.5469V45.9375C70.5469 43.9943 68.9745 42.4219 67.0312 42.4219C65.088 42.4219 63.5156 43.9943 63.5156 45.9375V60C63.5156 61.9432 65.088 63.5156 67.0312 63.5156H77.5781V74.0625C77.5781 76.0057 79.1505 77.5781 81.0938 77.5781C83.037 77.5781 84.6094 76.0057 84.6094 74.0625V45.9375C84.6094 43.9943 83.037 42.4219 81.0938 42.4219Z" fill="#D5E8FE"/>
<path d="M48.0455 66.3274C51.8048 63.5088 56.4844 60 56.4844 52.9688C56.4844 47.153 51.7533 42.4219 45.9375 42.4219C40.1217 42.4219 35.3906 47.153 35.3906 52.9688C35.3906 54.912 36.963 56.4844 38.9062 56.4844C40.8495 56.4844 42.4219 54.912 42.4219 52.9688C42.4219 51.0291 43.9978 49.4531 45.9375 49.4531C47.8772 49.4531 49.4531 51.0291 49.4531 52.9688C49.4531 56.3196 47.4206 58.0087 43.8295 60.7038C40.0702 63.5224 35.3906 67.0312 35.3906 74.0625C35.3906 76.0057 36.963 77.5781 38.9062 77.5781H52.9688C54.912 77.5781 56.4844 76.0057 56.4844 74.0625C56.4844 72.1193 54.912 70.5469 52.9688 70.5469H43.5382C44.4797 69.1406 45.9628 67.8905 48.0455 66.3274Z" fill="#EDF5FF"/>
<path d="M116.92 63.543C114.984 63.3267 113.233 64.6692 112.996 66.5951C109.714 92.9006 86.5491 112.969 60 112.969C30.9206 112.969 7.03125 89.0794 7.03125 60C7.03125 47.1837 11.952 34.7808 20.2261 25.2548V26.4187C20.2261 28.3619 21.7985 29.9344 23.7417 29.9344C25.6849 29.9344 27.2573 28.3619 27.2573 26.4187V16.4761C27.2573 14.5329 25.6849 12.9604 23.7417 12.9604H13.7955C11.8523 12.9604 10.2799 14.5329 10.2799 16.4761C10.2799 18.4193 11.8523 19.9917 13.7955 19.9917H15.4887C5.75063 30.8801 0 45.1767 0 60C0 92.9555 27.0445 120 60 120C90.0888 120 116.254 97.2813 119.973 67.4672C120.213 65.5413 118.846 63.7835 116.92 63.543Z" fill="#FED843"/>
<path d="M119.973 67.4671C120.213 65.541 118.846 63.7832 116.921 63.543C114.984 63.3267 113.233 64.6692 112.996 66.595C109.714 92.9006 86.5491 112.969 60 112.969V120C90.0888 120 116.254 97.2813 119.973 67.4671Z" fill="#FABE2C"/>
</g>
<defs>
<clipPath id="clip0_70_212">
<rect width="120" height="120" fill="white"/>
</clipPath>
</defs>
</svg>
