<svg width="120" height="120" viewBox="0 0 120 120" fill="none" xmlns="http://www.w3.org/2000/svg">
<path d="M87.0967 53.2256V54.5839C87.0967 56.2481 87.365 57.9014 87.8912 59.4802L90.9676 68.7094H96.774V47.419H92.9031C89.6964 47.4192 87.0967 50.0187 87.0967 53.2256Z" fill="#5A4146"/>
<path d="M113.598 57.2464L110.323 68.7096L94.8387 55.1614C92.7007 55.1614 90.9678 53.4282 90.9678 51.2904C90.9678 48.0837 93.5675 45.484 96.7742 45.484H110.322C112.46 45.484 114.193 47.2172 114.193 49.3549V52.9929C114.194 54.4313 113.993 55.8628 113.598 57.2464Z" fill="#694B4B"/>
<path d="M106.451 74.5172H94.8379V83.0834H106.451V74.5172Z" fill="#E6AF78"/>
<path d="M94.8389 78.0712C96.6339 78.8006 98.5914 79.2112 100.645 79.2112C102.699 79.2112 104.657 78.8006 106.452 78.0712V74.516H94.8389V78.0712Z" fill="#D29B6E"/>
<path d="M115.788 81.8792L106.451 79.2115L100.645 83.0644L94.8383 79.2113L85.5013 81.8792C83.0085 82.5915 81.29 84.8698 81.29 87.4622V101.613C81.29 102.682 82.1565 103.548 83.2255 103.548H118.064C119.133 103.548 120 102.682 120 101.613V87.4622C120 84.8696 118.281 82.5915 115.788 81.8792Z" fill="#D5DCED"/>
<path d="M102.581 103.548H98.71L99.6777 83.0822H101.613L102.581 103.548Z" fill="#AFB9D2"/>
<path d="M100.645 76.4515C94.2314 76.4515 89.0322 71.2521 89.0322 64.8387V62.5711C89.0322 61.5446 89.44 60.5599 90.1659 59.8338L93.6757 56.3241C94.4189 55.5809 95.4351 55.1536 96.4856 55.1867C102.673 55.3819 108.149 56.7073 111.143 59.6311C111.876 60.3469 112.258 61.3481 112.258 62.3724V64.8387C112.258 71.2524 107.059 76.4515 100.645 76.4515Z" fill="#F0C087"/>
<path d="M94.8386 63.0511C94.8386 60.8184 96.7136 59.0438 98.9418 59.1858C102.849 59.4352 108.647 60.0881 112.204 61.7991C112.088 60.9825 111.737 60.2117 111.143 59.6309C108.149 56.707 102.673 55.3817 96.4856 55.1864L96.4853 55.1866V55.1864C95.4351 55.1534 94.4186 55.5809 93.6757 56.3238L90.1661 59.8334C89.44 60.5592 89.0322 61.5438 89.0322 62.5706V64.8382C89.0322 70.1342 92.5809 74.5931 97.4275 75.9895C95.8143 73.9992 94.8389 71.4727 94.8389 68.7091L94.8386 63.0511Z" fill="#E6AF78"/>
<path d="M112.258 93.2295C112.258 91.6894 112.87 90.2126 113.958 89.1237L118.941 84.1416C119.606 85.0934 120 86.2393 120 87.4625V101.613C120 102.682 119.133 103.549 118.064 103.549H112.258V93.2295Z" fill="#C7CFE2"/>
<path d="M101.613 86.9531H99.6777C99.1433 86.9531 98.71 86.5197 98.71 85.9854V83.0822H102.581V85.9854C102.581 86.5197 102.148 86.9531 101.613 86.9531Z" fill="#959CB5"/>
<path d="M100.645 83.0646L97.3646 85.5703C96.7996 86.002 95.9825 85.829 95.6411 85.2051L92.6982 79.8309L93.8828 78.0241C94.1455 77.6233 94.7054 77.5551 95.0568 77.8809L100.645 83.0646Z" fill="#C7CFE2"/>
<path d="M100.646 83.0646L103.926 85.5705C104.491 86.0023 105.308 85.8293 105.65 85.2054L108.592 79.8312L107.408 78.0244C107.145 77.6236 106.585 77.5554 106.234 77.8812L100.646 83.0646Z" fill="#C7CFE2"/>
<path d="M34.6458 75.6434C32.9918 71.261 31.68 63.7275 31.3967 59.8052C30.8576 52.3413 25.2328 46.257 17.6292 46.257C10.0256 46.257 4.40088 52.3416 3.86182 59.8052C3.57846 63.7273 2.26666 71.261 0.612677 75.6434C0.248224 76.6095 0.668927 77.6747 1.62025 78.1059C3.3926 78.9091 7.17143 80.4827 11.7288 81.0956H23.5294C28.0655 80.4813 31.8708 78.9068 33.638 78.1059C34.5896 77.6747 35.0103 76.6095 34.6458 75.6434Z" fill="#5A4146"/>
<path d="M33.6384 78.1062C34.5895 77.6749 35.0104 76.6097 34.6457 75.6436C32.992 71.2613 31.68 63.7277 31.3968 59.8055C30.858 52.3416 25.233 46.2572 17.6296 46.2572C17.6104 46.2572 17.5914 46.2572 17.5722 46.2574C11.7379 46.2811 9.67613 54.2379 14.6986 57.2067C15.0002 57.3851 15.1935 57.4709 15.1935 57.4709L19.5925 81.0959H23.5298C28.0659 80.4811 31.8712 78.9068 33.6384 78.1062Z" fill="#694B4B"/>
<path d="M31.6289 84.9816L25.3655 81.8501C24.0539 81.1943 23.2254 79.8537 23.2256 78.3874L23.2261 72.5808H11.6128V78.3877C11.6128 79.8539 10.7845 81.1941 9.47297 81.8499L3.20953 84.9816C1.24242 85.965 0 87.9755 0 90.1746V101.613C0 102.681 0.866485 103.548 1.93547 103.548H32.9032C33.9722 103.548 34.8387 102.681 34.8387 101.613V90.1749C34.8387 87.9755 33.596 85.965 31.6289 84.9816Z" fill="#E6AF78"/>
<path d="M17.419 80.3224C19.503 80.3224 21.4992 79.8928 23.3292 79.1281C23.2812 78.8841 23.2252 78.6415 23.2252 78.3872L23.2256 72.5806H11.6123V78.3874C11.6123 78.6431 11.5563 78.8869 11.5078 79.1318C13.339 79.8926 15.3342 80.3224 17.419 80.3224Z" fill="#D29B6E"/>
<path d="M31.6289 84.9816L27.1669 82.7506C25.0978 85.9456 21.5093 88.0646 17.4195 88.0646C13.3296 88.0646 9.74086 85.9456 7.6718 82.7504L3.20977 84.9816C1.24266 85.9651 0 87.9755 0 90.1747V101.613C0 102.682 0.866485 103.548 1.93547 103.548H32.9032C33.9722 103.548 34.8387 102.682 34.8387 101.613V90.1749C34.8387 87.9755 33.596 85.9651 31.6289 84.9816Z" fill="#D5DCED"/>
<path d="M17.4194 76.4515C11.515 76.4515 6.64004 72.0453 5.90293 66.3418C5.79605 65.5153 6.19332 64.7051 6.93722 64.3299C7.82832 63.8803 9.12324 63.1224 10.3631 62.0161C11.7438 60.7842 12.5538 59.4851 13.0113 58.5314C13.4053 57.7102 14.3109 57.2457 15.1936 57.4709C22.0082 59.209 26.6477 62.7544 28.331 64.2019C28.7828 64.5905 29.0432 65.1635 28.9968 65.7579C28.5278 71.7415 23.5237 76.4515 17.4194 76.4515Z" fill="#F0C087"/>
<path d="M28.3307 64.2017C26.6476 62.7542 22.0079 59.2088 15.1933 57.4706C14.3106 57.2454 13.405 57.7099 13.011 58.5312C12.6646 59.2535 12.092 60.1737 11.2424 61.1131C11.2422 61.1154 11.2415 61.1173 11.2412 61.1196C10.9776 61.4185 10.6968 61.718 10.363 62.0161C9.12318 63.1226 7.82826 63.8803 6.93716 64.3299C6.19326 64.7051 5.79623 65.5156 5.90287 66.342C6.56498 71.4642 10.5733 75.5414 15.6587 76.3191C13.3415 74.7427 11.6129 72.5747 11.6129 68.7099V65.9499C12.0526 65.6253 12.4954 65.3016 12.9402 64.9046C14.016 63.9446 14.9551 62.8343 15.7082 61.639C20.9214 63.2658 24.4558 65.9754 25.7957 67.1276C26.1625 67.4492 27.0728 68.2882 28.1378 69.2874C28.596 68.1846 28.899 67.0015 28.9963 65.7581C29.0429 65.1635 28.7826 64.5905 28.3307 64.2017Z" fill="#E6AF78"/>
<path d="M1.17984 86.6857C0.434297 87.6752 0 88.889 0 90.1746V101.613C0 102.682 0.866485 103.548 1.93547 103.548H7.74188V93.7957C7.74188 92.6198 7.20727 91.5075 6.28898 90.7729L1.17984 86.6857Z" fill="#C7CFE2"/>
<path d="M87.8068 82.3402L71.6127 76.4513L59.9999 80.3225L48.3871 76.4515L32.1929 82.3404C29.1334 83.453 27.0967 86.3607 27.0967 89.6161V101.613C27.0967 102.682 27.9632 103.548 29.0321 103.548H90.9676C92.0366 103.548 92.9031 102.682 92.9031 101.613V89.6161C92.9031 86.3604 90.8666 83.4528 87.8068 82.3402Z" fill="#3AADC7"/>
<path d="M57.9723 84.1936L56.1289 103.548H63.8708L62.0274 84.1936H57.9723Z" fill="#707487"/>
<path d="M62.0323 86.8525H57.9682C57.2198 86.8525 56.6133 86.246 56.6133 85.4976V80.3224H63.387V85.4976C63.3872 86.2457 62.7806 86.8525 62.0323 86.8525Z" fill="#5B5D6E"/>
<path d="M90.8195 84.3411C92.1264 85.7438 92.9029 87.612 92.9029 89.6159V101.613C92.9029 102.682 92.0364 103.548 90.9674 103.548H81.29V97.0775C81.29 95.0241 82.1057 93.0549 83.5576 91.6032L90.8195 84.3411Z" fill="#0997B6"/>
<path d="M81.2907 36.5365V20.3224C81.2907 18.1844 79.5575 16.4515 77.4198 16.4515H54.1939C45.6425 16.4515 38.71 23.3838 38.71 31.9355V36.5365C38.71 38.6168 39.0454 40.6835 39.7032 42.6569L40.3475 44.5898C40.5449 45.1819 40.6454 45.8018 40.6454 46.4259V47.4192H79.355V46.4259C79.355 45.8018 79.4556 45.1819 79.6529 44.5898L80.2972 42.6569C80.9554 40.6833 81.2907 38.6166 81.2907 36.5365Z" fill="#5A4146"/>
<path d="M48.3867 24.3143C48.3867 28.6568 51.907 32.1771 56.2495 32.1771H57.3382L57.8637 47.419H79.3542V46.4257C79.3542 45.8016 79.4548 45.1816 79.6521 44.5896L80.2964 42.6567C80.9543 40.6833 81.2897 38.6166 81.2897 36.5362V20.3224C81.2897 18.1844 79.5565 16.4515 77.4187 16.4515H56.2495C51.907 16.4515 48.3867 19.9718 48.3867 24.3143Z" fill="#694B4B"/>
<path d="M71.6133 62.9039H48.3867V80.3227H71.6133V62.9039Z" fill="#E6AF78"/>
<path d="M48.387 69.4476C51.806 71.4283 55.7644 72.5803 59.9998 72.5803C64.2352 72.5803 68.1938 71.4283 71.6126 69.4476V62.903H48.3867L48.387 69.4476Z" fill="#D29B6E"/>
<path d="M60.0004 80.3225L53.8274 86.4954C52.9977 87.3251 51.6264 87.2316 50.9171 86.2969L44.5166 77.8632L46.1907 74.3351C46.6848 73.294 47.9734 72.9125 48.9545 73.5172L60.0004 80.3225Z" fill="#0997B6"/>
<path d="M60 80.3225L66.173 86.4954C67.0027 87.3251 68.374 87.2316 69.0832 86.2969L75.4837 77.8632L73.8096 74.3351C73.3155 73.294 72.027 72.9125 71.0459 73.5172L60 80.3225Z" fill="#0997B6"/>
<path d="M60.0004 68.7096C49.3111 68.7096 40.6455 60.0441 40.6455 49.3547V47.0871C40.6455 46.0606 41.0533 45.076 41.7792 44.3499L43.3825 42.7465C44.1084 42.0207 44.5162 41.036 44.5162 40.0092V35.3696C44.5162 34.4733 45.1181 33.6947 45.9902 33.4887C50.5678 32.4075 64.8124 29.8465 74.5064 36.9762C75.1359 37.4391 75.4839 38.1996 75.4839 38.981V40.0092C75.4839 41.0358 75.8918 42.0204 76.6176 42.7465L78.221 44.3499C78.9468 45.0757 79.3546 46.0603 79.3546 47.0871V49.3547C79.3554 60.0441 70.6898 68.7096 60.0004 68.7096Z" fill="#F0C087"/>
<path d="M74.5066 36.9764C67.6886 31.962 58.6321 31.7449 52.2586 32.4314C49.57 32.7209 47.3486 33.1683 45.9907 33.4889C45.1186 33.6949 44.5167 34.4735 44.5167 35.3698V40.0092C44.5167 41.036 44.1089 42.0207 43.3828 42.7467L41.7794 44.3501C41.0533 45.0762 40.6455 46.0608 40.6455 47.0876V49.3549C40.6455 59.2512 48.0775 67.3983 57.6616 68.5549C54.322 65.0771 52.2583 60.364 52.2583 55.1614V41.0142C52.2583 39.0528 53.7168 37.4135 55.6628 37.1696C60.3077 36.5871 68.815 36.237 75.4839 40.0097V38.9813C75.4844 38.1999 75.1357 37.4391 74.5066 36.9764Z" fill="#E6AF78"/>
<path d="M29.18 84.3411C27.8732 85.7438 27.0967 87.612 27.0967 89.6159V101.613C27.0967 102.682 27.9632 103.548 29.0321 103.548H38.7095V97.0775C38.7095 95.0241 37.8939 93.0549 36.4419 91.6032L29.18 84.3411Z" fill="#0997B6"/>
</svg>
